<svg xmlns="http://www.w3.org/2000/svg" xmlns:xlink="http://www.w3.org/1999/xlink" width="33" height="40" viewBox="0 0 33 40">
    <defs>
        <path id="a" d="M1 0h16.75a1 1 0 0 1 1 1v11.5H0V1a1 1 0 0 1 1-1z"/>
        <circle id="d" cx="10" cy="23.75" r="16.25"/>
        <filter id="c" width="109.2%" height="109.2%" x="-4.6%" y="-4.6%" filterUnits="objectBoundingBox">
            <feOffset in="SourceAlpha" result="shadowOffsetOuter1"/>
            <feGaussianBlur in="shadowOffsetOuter1" result="shadowBlurOuter1" stdDeviation=".5"/>
            <feColorMatrix in="shadowBlurOuter1" values="0 0 0 0 0.196078431 0 0 0 0 0.196078431 0 0 0 0 0.203921569 0 0 0 0.4 0"/>
        </filter>
    </defs>
    <g fill="none" fill-rule="evenodd">
        <g transform="translate(6.875)">
            <mask id="b" fill="#fff">
                <use xlink:href="#a"/>
            </mask>
            <use fill="#D8D8D8" xlink:href="#a"/>
            <path fill="#DFE7ED" d="M0 0h3.75v20.833H0z" mask="url(#b)"/>
            <path fill="#EFF3F6" d="M3.75 0H7.5v20.833H3.75z" mask="url(#b)"/>
            <path fill="#DFE7ED" d="M7.5 0h3.75v20.833H7.5z" mask="url(#b)"/>
            <path fill="#EFF3F6" d="M11.25 0H15v20.833h-3.75z" mask="url(#b)"/>
            <path fill="#DFE7ED" d="M15 0h3.75v20.833H15z" mask="url(#b)"/>
            <g fill="#000" mask="url(#b)">
                <use filter="url(#c)" xlink:href="#d"/>
            </g>
        </g>
        <g transform="translate(0 7.5)">
            <circle cx="16.25" cy="16.25" r="16.25" fill="#EFF3F6"/>
            <circle cx="16.25" cy="16.25" r="12.5" fill="#DFE7ED"/>
        </g>
        <path fill="#005B9B" d="M17.148 22.277c2.362 0 4.217 1.505 4.217 3.816 0 2.502-2.047 4.077-4.637 4.077-3.378 0-5.478-2.118-5.478-6.073 0-4.235 2.555-6.597 6.247-6.597 1.296 0 2.555.297 3.413.84l-1.05 2.082c-.683-.454-1.47-.612-2.293-.612-2.047 0-3.36 1.207-3.447 3.553.718-.718 1.75-1.085 3.028-1.085zm-.578 5.775c1.207 0 2.047-.7 2.047-1.82s-.822-1.837-2.082-1.837c-1.242 0-2.117.77-2.117 1.838 0 1.05.787 1.82 2.152 1.82z"/>
    </g>
</svg>
