<?xml version="1.0" encoding="UTF-8"?>
<svg width="16px" height="16px" viewBox="0 0 16 16" version="1.1" xmlns="http://www.w3.org/2000/svg" xmlns:xlink="http://www.w3.org/1999/xlink">
    <!-- Generator: Sketch 52.1 (67048) - http://www.bohemiancoding.com/sketch -->
    <title>close_ic</title>
    <desc>Created with Sketch.</desc>
    <g id="↳-Screens" stroke="none" stroke-width="1" fill="none" fill-rule="evenodd">
        <g id="Event-Info-/-New-section" transform="translate(-1028.000000, -328.000000)" fill="#8A96A0">
            <g id="Main" transform="translate(380.000000, 312.000000)">
                <path d="M659.663309,24.0000827 L663.622932,20.0404591 C663.874366,19.7891909 664,19.483867 664,19.1246526 C664,18.7654382 663.874201,18.4602796 663.622932,18.208846 L661.791319,16.3770676 C661.539886,16.1256341 661.234727,16 660.875678,16 C660.516298,16 660.21114,16.1256341 659.959706,16.3770676 L656.000083,20.3366912 L652.040459,16.3770676 C651.789191,16.1256341 651.483867,16 651.124653,16 C650.765604,16 650.46028,16.1256341 650.208846,16.3770676 L648.377068,18.208846 C648.125799,18.4601143 648,18.7654382 648,19.1246526 C648,19.483867 648.125634,19.7890256 648.377068,20.0404591 L652.336691,24.0000827 L648.377068,27.9597062 C648.125799,28.2111397 648,28.5162983 648,28.8755127 C648,29.2347271 648.125634,29.5398857 648.377068,29.7913193 L650.208846,31.6229324 C650.46028,31.8743659 650.765604,32 651.124653,32 C651.483867,32 651.789026,31.8742006 652.040459,31.6229324 L656.000083,27.6633088 L659.959871,31.6229324 C660.211305,31.8743659 660.516298,32 660.875843,32 C661.234892,32 661.540216,31.8742006 661.791485,31.6229324 L663.622932,29.7913193 C663.874366,29.540051 664,29.2347271 664,28.8755127 C664,28.5162983 663.874366,28.2111397 663.622932,27.9597062 L659.663309,24.0000827 L659.663309,24.0000827 Z" id="close_ic"></path>
            </g>
        </g>
    </g>
</svg>