<?xml version="1.0" encoding="UTF-8"?>
<svg width="19px" height="20px" viewBox="0 0 19 20" version="1.1" xmlns="http://www.w3.org/2000/svg" xmlns:xlink="http://www.w3.org/1999/xlink">
    <!-- Generator: Sketch 52.1 (67048) - http://www.bohemiancoding.com/sketch -->
    <title>navbar_program_ic</title>
    <desc>Created with Sketch.</desc>
    <g id="↳-Screens" stroke="none" stroke-width="1" fill="none" fill-rule="evenodd">
        <g id="Event-Info-/-New-section" transform="translate(-429.000000, -22.000000)" fill="#FEFEFE">
            <g id="Top-Header">
                <g id="Group" transform="translate(240.000000, 22.000000)">
                    <g id="Lists" transform="translate(189.400000, 0.000000)">
                        <path d="M4,11 L14,11 L14,9 L4,9 L4,11 Z M16,2 L15,2 L15,0 L13,0 L13,2 L5,2 L5,0 L3,0 L3,2 L2,2 C0.8895,2 0.0095,2.9 0.0095,4 L0,18 C0,19.1 0.8895,20 2,20 L16,20 C17.1,20 18,19.1 18,18 L18,4 C18,2.9 17.1,2 16,2 L16,2 Z M2,7 L16,7 L16,18 L2,18 L2,7 Z M4,15 L11,15 L11,13 L4,13 L4,15 Z" id="navbar_program_ic"></path>
                    </g>
                </g>
            </g>
        </g>
    </g>
</svg>