<?xml version="1.0" encoding="UTF-8"?>
<svg width="21px" height="20px" viewBox="0 0 21 20" version="1.1" xmlns="http://www.w3.org/2000/svg" xmlns:xlink="http://www.w3.org/1999/xlink">
    <!-- Generator: Sketch 52.1 (67048) - http://www.bohemiancoding.com/sketch -->
    <title>navbar_results_ic</title>
    <desc>Created with Sketch.</desc>
    <g id="↳-Screens" stroke="none" stroke-width="1" fill="none" fill-rule="evenodd">
        <g id="Event-Info-/-New-section" transform="translate(-931.000000, -22.000000)" fill="#FEFEFE">
            <g id="Top-Header">
                <g id="Group" transform="translate(240.000000, 22.000000)">
                    <g id="Results" transform="translate(691.600000, 0.000000)">
                        <path d="M9.99,0 C4.47,0 0,4.48 0,10 C0,15.52 4.47,20 9.99,20 C15.52,20 20,15.52 20,10 C20,4.48 15.52,0 9.99,0 L9.99,0 Z M14.23,16 L10,13.45 L5.77,16 L6.89,11.19 L3.16,7.96 L8.08,7.54 L10,3 L11.92,7.53 L16.84,7.95 L13.11,11.18 L14.23,16 L14.23,16 Z" id="navbar_results_ic"></path>
                    </g>
                </g>
            </g>
        </g>
    </g>
</svg>