<?xml version="1.0" encoding="UTF-8"?>
<svg width="19px" height="20px" viewBox="0 0 19 20" version="1.1" xmlns="http://www.w3.org/2000/svg" xmlns:xlink="http://www.w3.org/1999/xlink">
    <!-- Generator: Sketch 52.1 (67048) - http://www.bohemiancoding.com/sketch -->
    <title>navbar_users_ic</title>
    <desc>Created with Sketch.</desc>
    <g id="↳-Screens" stroke="none" stroke-width="1" fill="none" fill-rule="evenodd">
        <g id="Event-Info-/-New-section" transform="translate(-603.000000, -22.000000)" fill="#FEFEFE">
            <g id="Top-Header">
                <g id="Group" transform="translate(240.000000, 22.000000)">
                    <g id="Users" transform="translate(363.800000, 0.000000)">
                        <path d="M15.9998998,1.99954897 L11.8198903,1.99954897 C11.3999349,0.839910797 10.2999323,0 8.9994738,0 C7.6995164,0 6.59951389,0.839910797 6.1795585,1.99954897 L1.99954897,1.99954897 C0.899546468,1.99954897 0,2.89959658 0,3.99959909 L0,17.9999499 C0,19.0999524 0.899546468,20 1.99954897,20 L15.9998998,20 C17.0999023,20 17.9999499,19.0999524 17.9999499,17.9999499 L17.9999499,3.99959909 C17.9999499,2.89959658 17.0999023,1.99954897 15.9998998,1.99954897 L15.9998998,1.99954897 Z M8.9994738,1.99954897 C9.54972563,1.99954897 9.99974943,2.44957278 9.99974943,2.9998246 C9.99974943,3.55007642 9.54972563,3.99959909 8.9994738,3.99959909 C8.44972312,3.99959909 7.99969932,3.55007642 7.99969932,2.9998246 C7.99969932,2.44957278 8.44972312,1.99954897 8.9994738,1.99954897 L8.9994738,1.99954897 Z M8.9994738,5.9996492 C10.6597509,5.9996492 11.9997995,7.33969781 11.9997995,8.99997494 C11.9997995,10.6597509 10.6597509,11.9997995 8.9994738,11.9997995 C7.33969781,11.9997995 5.9996492,10.6597509 5.9996492,8.99997494 C5.9996492,7.33969781 7.33969781,5.9996492 8.9994738,5.9996492 L8.9994738,5.9996492 Z M14.9996241,17.9999499 L2.9998246,17.9999499 L2.9998246,16.5997645 C2.9998246,14.5997144 6.99992483,13.4997118 8.9994738,13.4997118 C10.9995239,13.4997118 14.9996241,14.5997144 14.9996241,16.5997645 L14.9996241,17.9999499 L14.9996241,17.9999499 Z" id="navbar_users_ic"></path>
                    </g>
                </g>
            </g>
        </g>
    </g>
</svg>