<svg xmlns="http://www.w3.org/2000/svg" width="44" height="44" viewBox="0 0 44 44">
    <g fill="none" fill-rule="evenodd">
        <path stroke="#FEFEFE" stroke-width="2" d="M1 22c0 11.598 9.402 21 21 21s21-9.402 21-21S33.598 1 22 1 1 10.402 1 22z"/>
        <path fill="#FEFEFE" d="M29.38 20.788l-10.203-7.55a1.208 1.208 0 0 0-1.279-.102 1.254 1.254 0 0 0-.67 1.115V29.35c0 .47.259.901.67 1.115a1.209 1.209 0 0 0 1.279-.103l10.203-7.55c.319-.235.506-.611.506-1.012 0-.4-.189-.776-.506-1.011z"/>
    </g>
</svg>
