<svg xmlns="http://www.w3.org/2000/svg" xmlns:xlink="http://www.w3.org/1999/xlink" width="33" height="40" viewBox="0 0 33 40">
    <defs>
        <path id="a" d="M1 0h16.75a1 1 0 0 1 1 1v11.5H0V1a1 1 0 0 1 1-1z"/>
        <circle id="d" cx="10" cy="23.75" r="16.25"/>
        <filter id="c" width="109.2%" height="109.2%" x="-4.6%" y="-4.6%" filterUnits="objectBoundingBox">
            <feOffset in="SourceAlpha" result="shadowOffsetOuter1"/>
            <feGaussianBlur in="shadowOffsetOuter1" result="shadowBlurOuter1" stdDeviation=".5"/>
            <feColorMatrix in="shadowBlurOuter1" values="0 0 0 0 0.196078431 0 0 0 0 0.196078431 0 0 0 0 0.203921569 0 0 0 0.4 0"/>
        </filter>
    </defs>
    <g fill="none" fill-rule="evenodd">
        <g transform="translate(6.875)">
            <mask id="b" fill="#fff">
                <use xlink:href="#a"/>
            </mask>
            <use fill="#D8D8D8" xlink:href="#a"/>
            <path fill="#DFE7ED" d="M0 0h3.75v20.833H0z" mask="url(#b)"/>
            <path fill="#EFF3F6" d="M3.75 0H7.5v20.833H3.75z" mask="url(#b)"/>
            <path fill="#DFE7ED" d="M7.5 0h3.75v20.833H7.5z" mask="url(#b)"/>
            <path fill="#EFF3F6" d="M11.25 0H15v20.833h-3.75z" mask="url(#b)"/>
            <path fill="#DFE7ED" d="M15 0h3.75v20.833H15z" mask="url(#b)"/>
            <g fill="#000" mask="url(#b)">
                <use filter="url(#c)" xlink:href="#d"/>
            </g>
        </g>
        <g transform="translate(0 7.5)">
            <circle cx="16.25" cy="16.25" r="16.25" fill="#EFF3F6"/>
            <circle cx="16.25" cy="16.25" r="12.5" fill="#DFE7ED"/>
        </g>
        <path fill="#005B9B" d="M15.957 22.102c3.623 0 5.058 1.628 5.058 3.798s-1.593 4.06-5.093 4.06c-1.697 0-3.482-.473-4.672-1.313l1.12-2.17c.928.7 2.205 1.103 3.482 1.103 1.418 0 2.293-.595 2.293-1.592 0-.963-.63-1.593-2.852-1.593H12.16l.63-6.895h7.473v2.275h-5.11l-.193 2.328h.997z"/>
    </g>
</svg>
