<svg xmlns="http://www.w3.org/2000/svg" xmlns:xlink="http://www.w3.org/1999/xlink" width="33" height="40" viewBox="0 0 33 40">
    <defs>
        <path id="a" d="M1 0h16.75a1 1 0 0 1 1 1v11.5H0V1a1 1 0 0 1 1-1z"/>
        <circle id="d" cx="10" cy="23.75" r="16.25"/>
        <filter id="c" width="118.5%" height="118.5%" x="-9.2%" y="-9.2%" filterUnits="objectBoundingBox">
            <feOffset in="SourceAlpha" result="shadowOffsetOuter1"/>
            <feGaussianBlur in="shadowOffsetOuter1" result="shadowBlurOuter1" stdDeviation="1"/>
            <feColorMatrix in="shadowBlurOuter1" result="shadowMatrixOuter1" values="0 0 0 0 0.992156863 0 0 0 0 0.529411765 0 0 0 0 0.498039216 0 0 0 1 0"/>
            <feOffset in="SourceAlpha" result="shadowOffsetOuter2"/>
            <feGaussianBlur in="shadowOffsetOuter2" result="shadowBlurOuter2" stdDeviation=".5"/>
            <feColorMatrix in="shadowBlurOuter2" result="shadowMatrixOuter2" values="0 0 0 0 0.196078431 0 0 0 0 0.196078431 0 0 0 0 0.203921569 0 0 0 0.4 0"/>
            <feMerge>
                <feMergeNode in="shadowMatrixOuter1"/>
                <feMergeNode in="shadowMatrixOuter2"/>
            </feMerge>
        </filter>
        <linearGradient id="e" x1="50%" x2="50%" y1="0%" y2="100%">
            <stop offset="0%" stop-color="#F6B898"/>
            <stop offset="100%" stop-color="#F29B76"/>
        </linearGradient>
        <circle id="f" cx="16.25" cy="16.25" r="16.25"/>
        <filter id="g" width="106.2%" height="106.2%" x="-3.1%" y="-3.1%" filterUnits="objectBoundingBox">
            <feMorphology in="SourceAlpha" radius="1" result="shadowSpreadInner1"/>
            <feGaussianBlur in="shadowSpreadInner1" result="shadowBlurInner1" stdDeviation=".5"/>
            <feOffset in="shadowBlurInner1" result="shadowOffsetInner1"/>
            <feComposite in="shadowOffsetInner1" in2="SourceAlpha" k2="-1" k3="1" operator="arithmetic" result="shadowInnerInner1"/>
            <feColorMatrix in="shadowInnerInner1" values="0 0 0 0 0.996078431 0 0 0 0 0.996078431 0 0 0 0 0.996078431 0 0 0 0.2 0"/>
        </filter>
        <circle id="h" cx="16.25" cy="16.25" r="12.5"/>
        <filter id="i" width="104%" height="104%" x="-2%" y="-2%" filterUnits="objectBoundingBox">
            <feGaussianBlur in="SourceAlpha" result="shadowBlurInner1" stdDeviation=".5"/>
            <feOffset in="shadowBlurInner1" result="shadowOffsetInner1"/>
            <feComposite in="shadowOffsetInner1" in2="SourceAlpha" k2="-1" k3="1" operator="arithmetic" result="shadowInnerInner1"/>
            <feColorMatrix in="shadowInnerInner1" values="0 0 0 0 0.196078431 0 0 0 0 0.196078431 0 0 0 0 0.203921569 0 0 0 0.4 0"/>
        </filter>
        <path id="k" d="M21.05 18.895c0 .677-.137 1.263-.411 1.759a3.699 3.699 0 0 1-1.077 1.225c-.443.32-.942.56-1.496.717a6.148 6.148 0 0 1-1.689.236c-.56 0-1.105-.064-1.636-.192a5.16 5.16 0 0 1-1.452-.586c-.438-.263-.82-.601-1.147-1.015a4.224 4.224 0 0 1-.735-1.497l2.73-.717c.117.408.356.767.718 1.076.362.31.822.464 1.382.464.21 0 .423-.03.64-.087.215-.059.408-.15.577-.272.169-.122.309-.283.42-.481.11-.198.166-.443.166-.735 0-.315-.073-.577-.219-.787a1.55 1.55 0 0 0-.577-.5c-.24-.122-.51-.21-.814-.262a5.327 5.327 0 0 0-.91-.078h-.788V15.01h.858c.28 0 .548-.02.805-.061.257-.041.487-.117.691-.228.204-.11.368-.26.49-.446.123-.187.184-.432.184-.735 0-.443-.157-.782-.473-1.015a1.775 1.775 0 0 0-1.085-.35c-.42 0-.784.125-1.093.376-.31.251-.51.586-.604 1.006l-2.73-.63a4.045 4.045 0 0 1 1.759-2.353c.414-.263.866-.461 1.356-.595.49-.134.992-.201 1.505-.201.548 0 1.082.07 1.601.21.52.14.983.355 1.391.647.409.292.738.656.99 1.094.25.437.375.953.375 1.549 0 .688-.195 1.268-.586 1.74-.39.473-.89.791-1.496.954v.053a3.187 3.187 0 0 1 1.715 1.041c.21.251.373.531.49.84.117.31.175.639.175.989z"/>
        <filter id="j" width="131.1%" height="123%" x="-15.6%" y="-11.5%" filterUnits="objectBoundingBox">
            <feOffset in="SourceAlpha" result="shadowOffsetOuter1"/>
            <feGaussianBlur in="shadowOffsetOuter1" result="shadowBlurOuter1" stdDeviation=".5"/>
            <feColorMatrix in="shadowBlurOuter1" values="0 0 0 0 0.196078431 0 0 0 0 0.196078431 0 0 0 0 0.203921569 0 0 0 0.4 0"/>
        </filter>
    </defs>
    <g fill="none" fill-rule="evenodd">
        <g transform="translate(6.875)">
            <mask id="b" fill="#fff">
                <use xlink:href="#a"/>
            </mask>
            <use fill="#D8D8D8" xlink:href="#a"/>
            <path fill="#FD877F" d="M0 0h3.75v20.833H0z" mask="url(#b)"/>
            <path fill="#FFF1B7" d="M3.75 0H7.5v20.833H3.75z" mask="url(#b)"/>
            <path fill="#FD877F" d="M7.5 0h3.75v20.833H7.5z" mask="url(#b)"/>
            <path fill="#FFF1B7" d="M11.25 0H15v20.833h-3.75z" mask="url(#b)"/>
            <path fill="#FD877F" d="M15 0h3.75v20.833H15z" mask="url(#b)"/>
            <g fill="#000" mask="url(#b)">
                <use filter="url(#c)" xlink:href="#d"/>
            </g>
        </g>
        <g transform="translate(0 7.5)">
            <use fill="url(#e)" xlink:href="#f"/>
            <use fill="#000" filter="url(#g)" xlink:href="#f"/>
        </g>
        <g transform="translate(0 7.5)">
            <use fill="#DE7F66" xlink:href="#h"/>
            <use fill="#000" filter="url(#i)" xlink:href="#h"/>
        </g>
        <g transform="translate(0 7.5)">
            <use fill="#000" filter="url(#j)" xlink:href="#k"/>
            <use fill="#FEFEFE" xlink:href="#k"/>
        </g>
    </g>
</svg>
